<svg width="24" height="24" viewBox="0 0 24 24" fill="none" xmlns="http://www.w3.org/2000/svg">
<path d="M12 0C3 0 0 3 0 12C0 21 3 24 12 24C21 24 24 21 24 12C24 3 21 0 12 0ZM7.5384 7.9848H16.4616C16.8414 7.9848 17.1822 8.1444 17.4258 8.3982L12 12.6288L6.5742 8.3982C6.8178 8.1444 7.1586 7.9848 7.5384 7.9848ZM17.7996 14.6766C17.7996 15.4152 17.2008 16.0152 16.4616 16.0152H7.5384C6.7992 16.0152 6.2004 15.4152 6.2004 14.6766V9.3228C6.2004 9.2958 6.2064 9.2706 6.2082 9.2442L12 13.7604L17.7918 9.2442C17.793 9.2706 17.7996 9.2958 17.7996 9.3228V14.6766Z" fill="white"/>
</svg>
