<svg width="24" height="24" viewBox="0 0 24 24" fill="none" xmlns="http://www.w3.org/2000/svg">
<path d="M12 0C3 0 0 3 0 12C0 21 3 24 12 24C21 24 24 21 24 12C24 3 21 0 12 0ZM16.828 9.524C16.832 9.63 16.836 9.736 16.836 9.847C16.836 13.139 14.33 16.936 9.744 16.936C8.334 16.936 7.026 16.531 5.921 15.819C6.118 15.844 6.314 15.853 6.518 15.853C7.683 15.853 8.76 15.454 9.607 14.79C8.518 14.767 7.602 14.041 7.28 13.055C7.431 13.088 7.592 13.098 7.751 13.098C7.98 13.098 8.202 13.071 8.405 13.015C7.272 12.784 6.408 11.779 6.408 10.567C6.408 10.557 6.408 10.547 6.408 10.54C6.741 10.723 7.134 10.839 7.533 10.847C6.871 10.405 6.427 9.639 6.427 8.777C6.427 8.317 6.553 7.89 6.768 7.517C7.998 9.029 9.832 10.022 11.904 10.123C11.863 9.942 11.847 9.752 11.847 9.555C11.847 8.182 12.956 7.062 14.338 7.062C15.047 7.062 15.699 7.364 16.158 7.85C16.722 7.738 17.256 7.535 17.736 7.247C17.552 7.831 17.158 8.315 16.638 8.623C17.142 8.56 17.624 8.428 18.076 8.23C17.736 8.736 17.322 9.174 16.828 9.524Z" fill="white"/>
</svg>
