<svg width="24" height="24" viewBox="0 0 24 24" fill="none" xmlns="http://www.w3.org/2000/svg">
<path fill-rule="evenodd" clip-rule="evenodd" d="M12.0381 0.020942C14.3483 -0.106553 19.0112 0.346743 20.9528 2.23072C22.6394 3.56226 24 6.36699 24 11.4382V12.0331V12.4156L23.9858 12.9397C24.0047 14.8189 23.674 18.7191 21.7465 20.9714C20.0033 23.0962 16.46 23.9461 13.4696 23.9461C10.961 24.1302 5.60363 23.9319 3.26511 21.9204C1.81948 20.9005 -0.221408 18.1808 0.0195259 11.2682C0.0195259 8.83174 0.473061 4.35551 2.8541 2.41486C4.90916 0.431784 9.16102 -0.120655 12.0381 0.020942ZM9.12836 6.25102C9 6.4207 9 6.72852 9 7.34417V16.2323C9 16.8479 9 17.1558 9.12836 17.3255C9.24019 17.4733 9.41111 17.5648 9.59614 17.5758C9.80853 17.5885 10.0647 17.4177 10.5769 17.0762L17.243 12.6322C17.6663 12.35 17.8779 12.2089 17.9516 12.0311C18.0161 11.8756 18.0161 11.7009 17.9516 11.5454C17.8779 11.3676 17.6663 11.2265 17.243 10.9443L10.5769 6.50024C10.0647 6.15874 9.80853 5.98799 9.59614 6.00067C9.41111 6.01172 9.24019 6.10319 9.12836 6.25102Z" fill="white"/>
</svg>
